# xmcd
#
# Track frame offsets:
#	150
#	15190
#	34129
#	58770
#	68895
#	77946
#	99448
#	113754
#
# Disc length: 1905 seconds
#
# Revision: 0
# Processed by: cddbd v1.5.2PL0 Copyright (c) Steve Scherf et al.
# Submitted via: dBpowerAMP V4.0
#
DISCID=5d076f08
DTITLE=Andy Egert - 1990
DYEAR=1900
DGENRE=Blues
TTITLE0=Blow wind
TTITLE1=Cold shot
TTITLE2=Woman
TTITLE3=History
TTITLE4=Opening
TTITLE5=St.James Infirmary
TTITLE6=Power of blues
TTITLE7=Red house
EXTD=
EXTT0=
EXTT1=
EXTT2=
EXTT3=
EXTT4=
EXTT5=
EXTT6=
EXTT7=
PLAYORDER=
